<svg xmlns="http://www.w3.org/2000/svg" viewBox="0 0 293.16 63.84"><defs><style>.cls-1,.cls-2{fill:#231815;}.cls-2{fill-rule:evenodd;}</style></defs><title>lsd-logo</title><g id="图层_2" data-name="图层 2"><g id="图层_1-2" data-name="图层 1"><path class="cls-1" d="M189.32,13.05a6.53,6.53,0,1,1,6.53-6.52A6.53,6.53,0,0,1,189.32,13.05Zm0-12.31a5.79,5.79,0,1,0,5.79,5.79A5.79,5.79,0,0,0,189.32.74Z"/><path class="cls-1" d="M190.82,10.22,189,7.09H187.7v3.13h-.94V2.84h2.32c1.5,0,2.58.53,2.58,2.07A2,2,0,0,1,190,7l1.89,3.23ZM187.7,6.33h1.24c1.16,0,1.79-.46,1.79-1.42s-.63-1.32-1.79-1.32H187.7Z"/><rect class="cls-1" x="208.9" y="13.09" width="3.03" height="19.02"/><polygon class="cls-1" points="237.13 18.78 235.07 18.78 235.07 13.09 232.1 13.09 232.1 18.78 230.32 18.78 230.32 21.27 232.1 21.27 232.1 32.11 235.07 32.11 235.07 21.27 237.13 21.27 237.13 18.78"/><path class="cls-1" d="M252.85,25.78a7.35,7.35,0,0,0-2-5.34,6.9,6.9,0,0,0-5.14-2,6.61,6.61,0,0,0-4.93,2,7,7,0,0,0-2,5.08,6.79,6.79,0,0,0,2,5,7,7,0,0,0,5.12,2,8.09,8.09,0,0,0,3.52-.71,6.67,6.67,0,0,0,2.35-2l-2.5-1.17a4.87,4.87,0,0,1-3.39,1.31,4.36,4.36,0,0,1-2.84-.92,4,4,0,0,1-1.37-2.5l0-.29h11.2ZM241.71,24l.16-.35a4.72,4.72,0,0,1,1.35-1.89,4.44,4.44,0,0,1,2.7-.86,4.18,4.18,0,0,1,2.49.77,3.73,3.73,0,0,1,1.45,2l.1.32Z"/><rect class="cls-1" x="264.09" y="18.4" width="2.97" height="13.7"/><path class="cls-1" d="M267,13.32a1.9,1.9,0,0,0-1.39-.59,2,2,0,0,0-2,2,2,2,0,0,0,.59,1.45,1.92,1.92,0,0,0,2.76,0,1.89,1.89,0,0,0,.58-1.4A2,2,0,0,0,267,13.32Z"/><path class="cls-1" d="M280.52,19.37a7.11,7.11,0,0,0-3.56-.95,6.7,6.7,0,0,0-4.62,1.82,7.07,7.07,0,0,0-.27,10.18,6.68,6.68,0,0,0,4.9,2,7.17,7.17,0,0,0,3.58-.92A6.94,6.94,0,0,0,283.11,29a7.07,7.07,0,0,0,.93-3.54,6.91,6.91,0,0,0-3.52-6.06Zm-.62,9.16a4.06,4.06,0,0,1-5.77,0,4.33,4.33,0,0,1-1.13-3.1,4.26,4.26,0,0,1,1.14-3.05,4.09,4.09,0,0,1,5.78,0,4.28,4.28,0,0,1,1.13,3.06A4.33,4.33,0,0,1,279.9,28.53Z"/><path class="cls-1" d="M221.91,21.38a2.92,2.92,0,0,1,2.91,2.91v7.82h3V24.29a5.89,5.89,0,1,0-11.77,0v7.82h3V24.29A2.92,2.92,0,0,1,221.91,21.38Z"/><path class="cls-1" d="M261.18,21.38h.71v-3h-.71a5.9,5.9,0,0,0-5.88,5.89v7.82h3V24.29A2.92,2.92,0,0,1,261.18,21.38Z"/><path class="cls-1" d="M292.46,21.38h.7v-3h-.7a5.9,5.9,0,0,0-5.89,5.89v7.82h3V24.29A2.92,2.92,0,0,1,292.46,21.38Z"/><rect class="cls-1" x="254.47" y="44.72" width="2.97" height="13.7"/><path class="cls-1" d="M257.34,39.64a1.82,1.82,0,0,0-1.38-.59,2,2,0,0,0-2,2,2,2,0,0,0,.58,1.45,1.87,1.87,0,0,0,1.4.59,1.84,1.84,0,0,0,1.37-.58,2,2,0,0,0,0-2.83Z"/><path class="cls-1" d="M218.81,41.21a13.72,13.72,0,0,0-5.94-1h-4v18.2h4a19.12,19.12,0,0,0,5-.45,6.68,6.68,0,0,0,2.64-1.59,8.06,8.06,0,0,0,1.93-2.92,10.58,10.58,0,0,0,.69-3.88A10.44,10.44,0,0,0,222,44.4,7.59,7.59,0,0,0,218.81,41.21Zm.59,11.67a4.45,4.45,0,0,1-1.91,2,8.3,8.3,0,0,1-3.65.59h-1.9V43.16h1.46c2.26,0,3.94.52,5,1.55a6.48,6.48,0,0,1,1.74,4.8A7.2,7.2,0,0,1,219.4,52.88Z"/><path class="cls-1" d="M240.1,52.1a7.35,7.35,0,0,0-2-5.34,6.9,6.9,0,0,0-5.14-2,6.61,6.61,0,0,0-4.93,2,7,7,0,0,0-2,5.08,6.75,6.75,0,0,0,2,5,6.93,6.93,0,0,0,5.13,2,7.94,7.94,0,0,0,3.51-.72,6.53,6.53,0,0,0,2.35-2l-2.5-1.17a4.87,4.87,0,0,1-3.39,1.31,4.27,4.27,0,0,1-2.83-.93A3.91,3.91,0,0,1,229,52.81l0-.29h11.2ZM229,50.28l.16-.35A4.82,4.82,0,0,1,230.47,48a4.44,4.44,0,0,1,2.7-.86,4.18,4.18,0,0,1,2.49.77,3.69,3.69,0,0,1,1.45,2l.1.32Z"/><path class="cls-1" d="M246.89,58.78a5,5,0,0,0,3.46-1.16,4,4,0,0,0,.57-5.16,7.34,7.34,0,0,0-2.67-2L247,49.88a4,4,0,0,1-1.11-.7,1,1,0,0,1-.27-.68,1,1,0,0,1,.43-.82,1.71,1.71,0,0,1,1.06-.3,3.67,3.67,0,0,1,2.38,1.2l1.81-1.82a5.37,5.37,0,0,0-4.21-2,4.36,4.36,0,0,0-3.07,1.1,3.39,3.39,0,0,0-1.18,2.62c0,1.58,1.08,2.93,3.21,4l1.17.58c1.11.56,1.65,1.15,1.65,1.79a1.2,1.2,0,0,1-.51,1,2.55,2.55,0,0,1-2.84-.09,5.24,5.24,0,0,1-1.31-1l-1.8,2A5.44,5.44,0,0,0,246.89,58.78Z"/><path class="cls-1" d="M284.16,47.7a2.91,2.91,0,0,1,2.92,2.91v7.82h3V50.61a5.89,5.89,0,1,0-11.77,0v7.82h3V50.61A2.91,2.91,0,0,1,284.16,47.7Z"/><path class="cls-1" d="M264.07,63.35a9.71,9.71,0,0,0,3.33.49,6.84,6.84,0,0,0,5.52-2.15c.9-1,1.35-2.73,1.35-5v-12h-3V46l-.38-.24a6.82,6.82,0,1,0-3.54,12.64,6.77,6.77,0,0,0,3.52-1l.41-.24,0,.47a4.54,4.54,0,0,1-.35,1.78,2.91,2.91,0,0,1-1.31,1.23,5.34,5.34,0,0,1-2.37.46,5.67,5.67,0,0,1-2-.32,3.42,3.42,0,0,1-1.33-.87h-3.36a5.81,5.81,0,0,0,1.23,2A6,6,0,0,0,264.07,63.35Zm3.32-7.88a3.86,3.86,0,1,1,3.86-3.86A3.86,3.86,0,0,1,267.39,55.47Z"/><path class="cls-2" d="M119.09,25.83a12.62,12.62,0,0,0-12.62-12.62H72A12.62,12.62,0,0,0,59.35,25.83v2.42A12.62,12.62,0,0,0,71.29,40.84h0l31,1.42h0a3.6,3.6,0,0,1,0,7.19H75.91A3.43,3.43,0,0,1,72.48,46V44.92H59.35v2.25A12.61,12.61,0,0,0,72,59.79h34.51a12.62,12.62,0,0,0,12.62-12.62V44.75a12.6,12.6,0,0,0-12-12.58L76.08,30.73a3.6,3.6,0,1,1,0-7.19h26.44A3.42,3.42,0,0,1,106,27v1.11h13.14Z"/><path class="cls-2" d="M182.79,26.29a12.6,12.6,0,0,0-12.61-12.61l-47.12,0V59.3h47.12a12.61,12.61,0,0,0,12.61-12.61ZM169.66,46a3.43,3.43,0,0,1-3.43,3.43l-30,0V23.54h30A3.43,3.43,0,0,1,169.66,27Z"/><path class="cls-2" d="M55.4,49.48l-38.83,0A3.42,3.42,0,0,1,13.14,46V13.7H0v33A12.62,12.62,0,0,0,12.62,59.3H55.4Z"/></g></g></svg>