<?xml version="1.0" encoding="utf-8"?>
<!-- Generator: Adobe Illustrator 16.0.0, SVG Export Plug-In . SVG Version: 6.00 Build 0)  -->
<!DOCTYPE svg PUBLIC "-//W3C//DTD SVG 1.1//EN" "http://www.w3.org/Graphics/SVG/1.1/DTD/svg11.dtd">
<svg version="1.1" id="图层_1" xmlns="http://www.w3.org/2000/svg" xmlns:xlink="http://www.w3.org/1999/xlink" x="0px" y="0px"
	 width="720px" height="261.535px" viewBox="0 0 720 261.535" enable-background="new 0 0 720 261.535" xml:space="preserve">
<g>
	<defs>
		<rect id="SVGID_1_" width="720" height="261.535"/>
	</defs>
	<clipPath id="SVGID_2_">
		<use xlink:href="#SVGID_1_"  overflow="visible"/>
	</clipPath>
	<path clip-path="url(#SVGID_2_)" fill="#626466" d="M10.689,154.783c14.188,6.172,35.884,12.313,58.301,12.313
		c24.156,0,36.924-8.506,36.924-21.379c0-12.322-11.029-19.395-39.002-27.877C28.271,106.391,3.096,88.237,3.096,59.511
		C3.096,25.768,36.246,0,91.068,0c26.214,0,45.556,4.666,59.319,9.958l-11.685,36.043c-9.332-3.807-25.896-9.363-48.631-9.363
		c-22.799,0-33.848,8.801-33.848,19.034c0,12.608,13.128,18.186,43.116,27.846c41.08,12.906,60.38,31.103,60.38,58.976
		c0,33.127-29.988,61.26-93.846,61.26c-26.553,0-52.767-5.854-65.873-12.035L10.689,154.783z"/>
	<polygon clip-path="url(#SVGID_2_)" fill="#626466" points="229.771,3.224 229.771,200.807 374.984,200.807 374.984,163.299 
		282.581,163.299 282.581,3.224 	"/>
	<rect x="524.926" y="242.002" clip-path="url(#SVGID_2_)" fill="#626466" width="195.074" height="19.533"/>
	<path clip-path="url(#SVGID_2_)" fill="#C4141B" d="M566.6,171.75c5.748,0.859,14.549,0.859,22.99,0.859
		c54.188,0.307,86.381-25.025,86.381-74.288c0.318-42.851-28.779-67.315-80.93-67.315c-13.256,0-22.693,0.859-28.441,1.983V171.75z
		 M524.926,7.381c18.303-2.587,41.674-4.019,66.383-4.019c42.67,0,72.129,7.487,93.146,22.449C706.447,41.112,720,64.092,720,97.166
		c0,34.586-13.891,60.48-35.545,77.162c-22.736,17.549-58.959,26.479-103.307,26.479c-24.389,0-42.67-1.146-56.223-2.619V7.381z"/>
</g>
</svg>
